<?xml version="1.0" encoding="UTF-8"?>
<!DOCTYPE svg PUBLIC "-//W3C//DTD SVG 1.1//EN" "http://www.w3.org/Graphics/SVG/1.1/DTD/svg11.dtd">
<!-- Creator: CorelDRAW -->
<svg xmlns="http://www.w3.org/2000/svg" xml:space="preserve" width="34.4496mm" height="40.825mm" version="1.1" style="shape-rendering:geometricPrecision; text-rendering:geometricPrecision; image-rendering:optimizeQuality; fill-rule:evenodd; clip-rule:evenodd"
viewBox="0 0 197.58 234.14"
 xmlns:xlink="http://www.w3.org/1999/xlink"
 xmlns:xodm="http://www.corel.com/coreldraw/odm/2003">
 <defs>
  <style type="text/css">
   <![CDATA[
    .fil0 {fill:#8A2D05}
   ]]>
  </style>
 </defs>
 <g id="Layer_x0020_1">
  <metadata id="CorelCorpID_0Corel-Layer"/>
  <path class="fil0" d="M138.6 140.88c-7.86,15.93 -48.92,61.38 -63.49,70.2 -7.01,5.02 -12.09,7.22 -19.01,11.59 29.23,14 68.7,17.07 97.21,-1.57 44.71,-29.24 52.22,-109.71 37.28,-154.46 -6.43,3.66 -38.42,59.16 -51.99,74.23zm-117.37 43.43c5.41,-6.91 7.14,-18.48 17.91,-19.58 22.93,45.45 52.33,-5.68 68.21,-18.12 -7.01,1.07 0.83,-0.39 -11.26,7.25 -4.7,2.97 -7.72,4.93 -13.09,7.07 -8.21,3.29 -24.51,7.26 -29.03,-2.4 -16.11,-10.39 10.98,-38.07 15.28,-43.15 13.56,-16.02 35.01,-29.89 42.55,-49.89 3.53,-9.36 2.33,-10.68 -1.73,-16.88 -22.09,-4.45 -39.05,17.12 -46.46,30.84 -9.19,17.02 -6.21,18.34 -8.43,30.58 -1.61,8.9 -10.28,14.02 -22.39,13.24 -19.15,-8.26 -15.86,-25.19 -7.61,-41.85 17.66,-26.26 38.14,-45.14 72.07,-50.77 94.14,-6.62 1.44,88.49 0.43,93.96 0.06,0.65 0.17,2.41 0.46,2.98 16.6,3.82 66.66,-68.96 73.21,-73.83l4.61 -6.79c1.86,-2.4 2.5,-3.18 4.01,-5.42 -10.72,-27.16 -46.63,-41.16 -73.43,-41.57 -110.38,-0.97 -127.64,135.35 -85.31,184.31z"/>
 </g>
</svg>
