<?xml version="1.0" encoding="UTF-8"?>
<!DOCTYPE svg PUBLIC "-//W3C//DTD SVG 1.1//EN" "http://www.w3.org/Graphics/SVG/1.1/DTD/svg11.dtd">
<!-- Creator: CorelDRAW -->
<svg xmlns="http://www.w3.org/2000/svg" xml:space="preserve" width="68.6644mm" height="45.5526mm" version="1.1" style="shape-rendering:geometricPrecision; text-rendering:geometricPrecision; image-rendering:optimizeQuality; fill-rule:evenodd; clip-rule:evenodd"
viewBox="0 0 697.64 462.82"
 xmlns:xlink="http://www.w3.org/1999/xlink"
 xmlns:xodm="http://www.corel.com/coreldraw/odm/2003">
 <defs>
  <style type="text/css">
   <![CDATA[
    .fil6 {fill:#7C3213}
    .fil4 {fill:#842C0B}
    .fil5 {fill:#863A25}
    .fil8 {fill:#8A2B09}
    .fil0 {fill:#8A2D05}
    .fil1 {fill:#8C2C05}
    .fil2 {fill:#8D2B04}
    .fil10 {fill:#F4F3EC}
    .fil7 {fill:#F8FAF6}
    .fil12 {fill:#F9E5DA}
    .fil3 {fill:#FAFAFA}
    .fil9 {fill:#FCF3F3}
    .fil11 {fill:#FEF3E4}
   ]]>
  </style>
 </defs>
 <g id="Layer_x0020_1">
  <metadata id="CorelCorpID_0Corel-Layer"/>
  <g id="_2660421743584">
   <path class="fil0" d="M193.08 97.46c-3.2,11.11 -3.8,4.11 -9.8,10.8 -5.42,6.04 -3.48,6.07 -6.63,13.72 -2.58,6.26 -25.43,15.45 -21.33,-2.88 5.51,-24.61 44.8,-46.1 37.75,-21.64zm254.51 11.56c0.79,-2.69 0.78,-2.39 3.25,-4.54l12.57 -9.3c21.51,-14.19 30.86,-7.76 7.45,7.41 -6.39,4.14 -13.75,7.49 -23.28,6.44zm18.3 -26.24c3.52,-9.67 31.33,-30.76 15.69,-39.25 -11.62,-6.31 -15.11,-1.23 -21.61,5.28 -5.39,5.4 -9.73,10.07 -15.32,16.34 -9.33,10.45 -19.41,23.39 -28.62,35.29 -7.67,9.92 -20.88,31.34 -33.59,29.33 -0.5,-12.2 29.77,-33.51 29.76,-48.52 -0.01,-12.58 -20.47,-7.74 -27.51,-4.95 -4.55,1.8 -8.97,4.12 -12.91,6.66 -3.3,2.13 -7.6,5.81 -11.04,7.69 0.39,-5.69 4.44,-10.02 -2.1,-14.15 -3.19,-2.01 -10.46,-4.61 -14.53,-2.69 -8.51,4.01 -28.4,33.19 -35.13,41.09 -3.44,4.03 -10.11,10.88 -15.51,13.59 -2.98,1.5 -4.35,2.18 -6.9,0.66 -3.51,-6.9 16.47,-27.7 20.43,-33.27 3.25,-4.57 10.21,-12.67 3.86,-18.5 -5.57,-5.11 -13.3,-5.72 -19.33,-0.98 -13.62,10.71 -42.9,55.32 -55.47,53.06 -1.71,-8.21 15.31,-26.48 19.86,-31.99 3.23,-3.91 9.62,-11.5 6.54,-17.91 -2.34,-4.85 -12.52,-8.95 -18.37,-5.24 -7.29,4.62 -19.16,19.73 -24.88,26.96 -9.03,11.4 -13.47,24.61 -28.17,23.69 0.77,-3.85 5.49,-8.89 7.88,-13.17 7.13,-12.8 17.42,-36.84 -5.34,-38.97 -20.04,-1.88 -45.21,16.88 -54.08,27.32 -43.32,50.94 -9.98,74.72 30.11,45.49 4.46,-3.25 7.79,-7.1 10.98,-9.49 6.14,0.07 9.92,0.96 17.46,0.45 -0.9,8.24 -4.37,13.77 2.28,18.91 5.21,4.03 13.41,3.01 19.44,0.6 14.84,-5.93 25.02,-18.67 28.76,-19.78 -2.35,13.47 -4.12,22.62 13.83,21.76 15.44,-0.73 22.88,-9.26 28.11,-10.25 -0.01,6.04 0.12,7.92 5.78,9.66 3.86,1.19 10.26,1.47 14.75,0.5 0.11,-0.07 53.73,-69.6 72.01,-70.83 -1.41,5.89 -13.22,16.81 -17.42,21.95 -5.86,7.17 -11.93,14.77 -16.54,22.37 -14.22,23.39 -0.12,31.24 19.04,25.35 7.27,-2.24 9.67,-4.67 13.52,-6.05 2.59,8.86 10.8,8.24 21.74,7.97 2.66,-1.02 21.86,-28.9 26.88,-31.57 0.26,9.61 -0.93,16.36 4.11,23.57 12.53,17.92 49.62,0.95 56.88,-8.38 0.47,6.59 -2.93,16.56 15.81,16.32 24.84,-0.33 53.38,-33.71 54.66,-41.46 -3.33,-1.34 -2.83,-1.96 -7.38,-2.27 -2.07,2.8 -16.65,18.53 -22.87,14.94 -0.67,-0.99 -0.42,0 -0.71,-1.81 -0.2,-1.27 -0.3,-1.79 1.05,-4.25l10.07 -14.19c7.9,-9.43 29.5,-34.12 3.22,-35.89 -12.94,-0.87 -32.79,34.31 -48.01,49.38 -18.76,18.58 -39.11,14.4 -39.77,-0.65 22.32,0.43 40.77,-10.98 48.4,-28.05 5.05,-11.29 4.05,-21.16 -11.64,-20.82 -11.86,0.26 -22.47,8.07 -28.17,9.17z"/>
   <path class="fil1" d="M21.03 128.2c-15.39,0.29 -29.07,38.41 -10.72,51.23 18.76,13.12 44.19,-3.8 56.4,-13.56 39.15,-31.3 77.56,-88.36 107.36,-130.86 5.35,-7.63 16.57,-20.13 12.96,-24.91 -2.67,-3.53 -10.96,-4.9 -16.25,-2.59 -7.13,3.11 -37.85,42.1 -46.91,51.84 -8.25,8.87 -31.79,35.15 -44.7,34.07 0.54,-5.96 17.48,-22.3 21.76,-27.03 7.11,-7.84 14.37,-17.17 19.32,-28.42 16.87,-38.34 -19.31,-41.99 -48.94,-35.26 -23.98,5.45 -45.46,20.84 -58.82,37.68 -30.4,38.32 1.97,59.38 20.23,43.66 9.76,-8.4 -0.84,-12.4 12.74,-35.94 5.67,-9.83 13.99,-19.19 22.9,-24.85 8.64,-5.49 33.15,-13.11 27.89,6.87 -6.88,26.1 -60.88,56.24 -64.34,79.63 -3.75,25.36 25.58,20.8 44.78,9.31 4.5,-2.69 10.24,-7.83 14.28,-9.71 -2.36,6.16 -24.09,24.37 -31.71,29.56 -6.12,4.17 -13.78,7.71 -23.76,4.66 -3.71,-1.13 -7.26,-3 -9.72,-5.55 -3.94,-4.08 -2.46,-6.15 -4.76,-9.85z"/>
   <path class="fil1" d="M512.71 379.17c22.51,-0.11 40.63,-3.71 40.46,17.99 -0.14,16.91 -10.01,17.29 -25.09,17.3l-15.28 -0.86 -0.18 -26.17 0.09 -8.26zm52.27 47.95c2.99,-3.04 7.31,-4.51 11.7,-11.35 3.08,-4.8 5.07,-10.5 5.22,-17.8 0.29,-13.64 -5.42,-23.47 -15.09,-29.8 -10.39,-6.8 -22.3,-7.48 -37.11,-7.5 -14.16,-0.01 -30.6,-0.76 -44.67,0.15l0.31 99.34 27.25 -0.07 0.44 -27.15 23.15 0.3c3.77,4.81 6.65,9.43 9.89,13.96 12.01,16.76 3.32,13.04 40.74,12.69 -0.97,-3.51 -20.19,-27.68 -21.83,-32.77z"/>
   <path class="fil0" d="M311.25 418.22c-2.54,16.81 -13.76,31.26 -34.21,25.77 -16.31,-4.38 -21.91,-22.91 -19.3,-41.7 5.63,-40.62 61.15,-34.63 53.51,15.94zm-82.51 0.81c4.02,30.47 28.97,46.77 64.18,43.35 30.67,-2.98 52.07,-24.98 47.52,-60.08 -4.2,-32.4 -30.22,-46.55 -64.31,-43.94 -30.67,2.35 -51.99,25.88 -47.4,60.68z"/>
   <path class="fil0" d="M178.47 228.05c19.54,-4.25 31.26,10.87 32.43,28.13 1.34,19.65 -4.52,36.77 -21.54,39.68 -20.05,3.42 -31.13,-10.54 -32.49,-28.27 -1.5,-19.63 3.67,-35.64 21.6,-39.54zm4.55 -18.5c-33.37,0 -55.24,18.94 -55.24,52.33 -0,33.59 22.07,52.22 55.24,52.22 34.67,0 56.89,-17.93 56.93,-52.22 0.05,-34.61 -22.87,-52.33 -56.93,-52.33z"/>
   <path class="fil0" d="M409.82 232.65c4.45,-3.39 5.5,-4.47 12.93,-4.67 25.74,-0.68 31.19,9.97 39.73,14.05 2.37,-1.56 10.3,-11.3 11.39,-13.35 -2.09,-5.61 -14.85,-11.89 -20.21,-13.9 -9.02,-3.38 -17.59,-5.23 -29.25,-5.23 -47.38,0 -55.26,35.43 -30.46,52 8.83,5.9 28.08,10.85 39.3,14.3 24.04,7.4 17.77,19.57 -2.35,19.57 -30.24,0 -34.57,-11.28 -41.31,-14.08 -2.76,2.03 -10.24,10.89 -11.54,13.76 10.51,18.47 68.48,27.32 90.79,7.98 9.02,-7.82 12.09,-24.47 3.4,-35.5 -7.08,-8.99 -18.9,-12.73 -31.83,-16.84 -6.35,-2.02 -12.28,-3.62 -18.35,-5.85 -7.49,-2.76 -13.05,-3.31 -12.23,-12.24z"/>
   <path class="fil1" d="M260.3 212c-1.56,7.33 -0.49,29.67 -0.49,38.55 0,12.33 -0.98,25.04 2.21,36.13 2.47,8.56 8.88,16.09 17.21,20.77 19.91,11.17 71.26,11.54 80.38,-21.26 3.93,-14.14 2.37,-55.63 2.1,-73.56 -4.12,-0.96 -23.61,-0.93 -27.72,0.09 0.24,17.65 0.01,35.53 0,53.22 -0.01,19.05 -3.79,30.56 -23.81,30.31 -36.99,-0.47 -17.04,-51.19 -23.15,-84.23l-26.74 -0.02z"/>
   <path class="fil1" d="M360.74 361c-0.99,11.35 -0.14,26.78 -0.14,38.59 0,12.17 -0.98,25.39 2.36,35.63 6.47,19.89 25.45,27.39 48.48,27.5 24.63,0.12 42.48,-8.19 49.05,-27.86 3.26,-9.74 3.08,-60.92 2,-74.17l-27.35 0.3c-0.64,17.59 -0.15,36.3 -0.1,53.99 0.06,18.43 -4.4,30.03 -23.61,29.92 -35.22,-0.19 -19.05,-43.46 -23.49,-84.24l-27.2 0.34z"/>
   <path class="fil0" d="M522.21 251.54c-0.29,-5.28 -0.88,-16.17 0.38,-20.95l59.43 -0.13 -0.16 -18.16c-11.19,-0.4 -81.58,-1.33 -87.5,0.42l0.04 98.26c6.17,1.81 75.85,0.77 87.58,0.46l-0.02 -18.21 -59.85 -0.24c-0.48,-4.26 -1.03,-19.23 0.3,-22.08 0.79,-0.96 4.53,-0.95 5.63,-0.94 1.9,0.01 3.8,0.05 5.72,0.05l35.54 -0.22 -0.28 -18.19 -46.79 -0.08z"/>
   <path class="fil2" d="M10.12 308.36c3.11,1.85 1.03,1.24 4.39,1.67 6.01,0.76 12.89,-0.59 19.15,-0.29l0.29 -37.75c4.43,-2.54 32.82,-1.75 41.36,-1.34 0.69,0.03 2.39,0.16 2.97,0.26 4.17,0.7 3.55,2.01 3.5,10.44 -0.04,6.51 -0.55,23.29 0.75,27.54 3.73,0.87 9.13,1.32 13.03,1.4 7.31,0.16 6.98,0.2 10.81,-3.83 -2.18,-11.99 -0.79,-74.56 -0.62,-91.31 -4.04,-0.99 0.09,-2.01 -11.81,-1.73 -2.25,0.05 -10.9,0.39 -12.15,0.7l-0.16 38.13c-0.46,2.67 -0.61,2.66 -3.02,3.01l-21.11 0.18c-3.78,-0 -7.56,-0.01 -11.34,-0 -1.87,0.01 -3.86,0.06 -5.72,-0.02 -1.18,-0.05 -2.12,-0.16 -3.19,-0.22l-2.43 -0.07c-3.31,-6.55 0.19,-23.92 -1.73,-37.46 -0.01,-0.04 -0.2,-1.05 -0.25,-1.28 -1.23,-5.21 -17.55,-3.51 -22.29,-2.43l-0.4 3.09c-0.89,4.07 -0.27,37.32 -0.27,42.43 0,8.37 -1.05,43.77 0.27,48.9z"/>
   <path class="fil0" d="M208.14 429.69c-5.15,4.68 -9.38,8.48 -16.05,11.24 -19.89,8.23 -45.66,2.97 -45.95,-30.01 -0.15,-17.56 5.48,-30.34 21.1,-33.68 22.29,-4.77 34.11,10.33 40.48,13.72 3.42,-4.29 9.01,-9.95 11.39,-14.06 -4.24,-6.47 -17.51,-13.73 -27.07,-16.35 -11.8,-3.24 -26.82,-3.48 -38.37,-0.15 -22.59,6.53 -36.65,22.64 -36.61,49.71 0.08,53.75 58.26,62.28 91.55,43.34 4.9,-2.79 7.48,-5.73 11.7,-9.19 -0.94,-2.8 -9.36,-13.36 -12.17,-14.57z"/>
   <path class="fil0" d="M665.66 93.73c0.52,8.54 -1.94,20.11 -5.19,26.76 -8.85,18.12 -30.02,10.16 -18.27,-2.08 6.41,-6.67 17.88,-20.11 23.46,-24.69zm31.01 -22.73c5.58,-10.64 -14.26,-16.01 -24.73,4.32 -3.93,7.64 -16.47,18.98 -22.72,25.02 -7.08,6.84 -6.29,7.22 -14.07,10.23 -16.84,6.51 -29.69,30.09 -23.02,45.33 5.14,11.76 22.29,13.91 35.43,9.28 11.88,-4.18 20.63,-11.4 27.82,-20.06 17.72,-21.33 9.8,-38.73 13.63,-58.49 2.54,-13.08 5.74,-11.99 7.66,-15.65z"/>
   <polygon class="fil1" points="589.06,379.09 623.66,379.22 623.96,460.14 651.19,460.02 651.31,379.17 686.1,379.14 685.98,360.67 588.67,360.77 "/>
   <path class="fil3" d="M311.25 418.22c7.64,-50.57 -47.88,-56.55 -53.51,-15.94 -2.61,18.8 3,37.32 19.3,41.7 20.45,5.49 31.67,-8.96 34.21,-25.77z"/>
   <path class="fil4" d="M83.13 415.13c-10.56,-1.55 -15.19,7.47 -21.05,11.7 -17.29,12.51 -38.7,-9.32 -27.07,-25.39 4.83,-6.67 12.91,-8.97 12.81,-20.63 -26.56,0.41 -40.31,34.49 -20.38,53.67 20.06,19.3 54.29,6.18 55.69,-19.35z"/>
   <path class="fil0" d="M51.37 380.61c-0.23,10.73 -5.66,13.96 -11.48,20.01 -14.33,14.9 6.4,36.6 23.07,21.47 6.28,-5.69 8.18,-9.77 20.13,-10.68 0.47,-16.5 -14.28,-30.81 -31.72,-30.8z"/>
   <path class="fil3" d="M512.62 387.44l0.18 26.17 15.28 0.86c15.07,-0.02 24.95,-0.39 25.09,-17.3 0.18,-21.7 -17.94,-18.11 -40.46,-17.99l-0.09 8.26z"/>
   <path class="fil5" d="M14.51 310.02c-3.37,-0.42 -1.28,0.19 -4.39,-1.67 -1.32,-5.13 -0.27,-40.53 -0.27,-48.9 0,-5.11 -0.61,-38.36 0.27,-42.43l0.4 -3.09c4.75,-1.08 21.07,-2.78 22.29,2.43 0.05,0.23 0.24,1.24 0.25,1.28 1.92,13.54 -1.57,30.91 1.73,37.46l2.43 0.07c1.06,0.06 2.01,0.17 3.19,0.22 1.86,0.07 3.85,0.02 5.72,0.02 3.78,-0.01 7.56,0 11.34,0l21.11 -0.18c2.41,-0.35 2.56,-0.34 3.02,-3.01l0.16 -38.13c1.25,-0.31 9.91,-0.64 12.15,-0.7 11.91,-0.28 7.78,0.74 11.81,1.73 -0.17,16.75 -1.56,79.32 0.62,91.31 -3.83,4.03 -3.5,3.99 -10.81,3.83 -3.9,-0.08 -9.3,-0.53 -13.03,-1.4 -1.3,-4.25 -0.79,-21.02 -0.75,-27.54 0.05,-8.43 0.67,-9.74 -3.5,-10.44 -0.58,-0.1 -2.28,-0.22 -2.97,-0.26 -8.54,-0.41 -36.93,-1.19 -41.36,1.34l-0.29 37.75c-6.26,-0.3 -13.14,1.05 -19.15,0.29zm20.94 1.18c1.18,-2.91 0.78,-6.56 0.76,-9.63l0.05 -28.63c4.19,-1.58 39.88,-1.37 43.34,0.04 2.92,7.63 -1.18,28.7 1,38.64 5.33,0.21 23.57,1.46 26.8,-0.58 1.4,-1.33 0.74,-22.05 0.74,-24.06 0,-17.26 1.05,-63.86 -0.19,-75l-27.73 0.09 -0.14 41.32 -43.84 -0.11 -0.26 -41.21 -21.51 -0.2c-3.12,-0.01 -4.35,-0.22 -5.38,0.87 -2.13,3.17 -1.04,87.1 -0.68,98.23 3.85,1.33 23.36,1.1 27.03,0.22z"/>
   <path class="fil6" d="M625.23 274.04c-1.03,-5.99 -0.59,-21.81 1.49,-26.91 2.58,-6.34 8.33,-11.37 14.54,-13.68 13.66,-5.1 34.18,1.7 36.28,19.6 6.6,56.41 -47.85,46.92 -52.3,20.99zm24.34 -47.26c-10.3,0 -18.18,4.31 -23.17,10.34 -6.29,7.6 -6.83,14.44 -6.84,26.38 -0.01,12.01 0.29,17.69 7.28,25.9 14.13,16.6 56.43,15.49 56.39,-22.66l-0.01 -8.91c-0.02,-20.72 -13.22,-31.06 -33.65,-31.06z"/>
   <path class="fil4" d="M648.24 272.89c-10.3,7.1 -12.73,-3.25 -5.95,-6.66 2.26,1.09 1.82,0.85 3.57,2.61 1.79,1.8 1.61,1.21 2.38,4.05zm-5.74 -23.86l3.82 0.03c1.07,3.27 0.64,4.7 -2.41,6.06 -2.34,-2.04 -2.77,-2.79 -1.41,-6.09zm12.52 0.18c-1.87,-9.91 -15.75,-11.34 -20.09,-2.84 -3.26,6.4 0.17,9.47 1.37,13.89 -15.31,13.52 0.9,32.98 18.14,17.48 2.7,1.97 3.33,2.94 5.46,5.17l10.96 0.09c-1.85,-3.95 -8.23,-8.56 -11.06,-12.21 0.59,-2.89 7.9,-14.13 9.67,-16.18l-9.73 -0.32c-1.17,2.79 -4.02,8.43 -7,9.93l-2.49 -3.15c2.08,-3.32 6.01,-5.32 4.78,-11.86z"/>
   <path class="fil7" d="M193.08 97.46c7.05,-24.46 -32.24,-2.98 -37.75,21.64 -4.1,18.33 18.75,9.14 21.33,2.88 3.15,-7.65 1.21,-7.68 6.63,-13.72 6,-6.69 6.59,0.32 9.8,-10.8z"/>
   <path class="fil8" d="M575.86 38.87c-9.14,2.11 -15.48,6.09 -20.19,14.17 -6.23,10.67 -1.94,18.55 12.02,16.8 21.9,-2.75 32.6,-36.62 8.17,-30.97z"/>
   <path class="fil8" d="M640.47 34.28c-4.16,2.66 -7.46,14.46 -16.34,25.59 -2.57,3.23 -7.53,9.04 -8.35,12.82 -1.98,9.1 7.93,5.48 11.89,2.83 6.93,-4.64 16.47,-14.16 21.83,-20.26 15.49,-17.63 -4.06,-24.16 -9.03,-20.99z"/>
   <path class="fil9" d="M665.66 93.73c-5.58,4.58 -17.04,18.02 -23.46,24.69 -11.76,12.23 9.42,20.19 18.27,2.08 3.25,-6.66 5.71,-18.23 5.19,-26.76z"/>
   <path class="fil10" d="M447.59 109.02c9.52,1.06 16.88,-2.29 23.28,-6.44 23.41,-15.17 14.05,-21.6 -7.45,-7.41l-12.57 9.3c-2.48,2.15 -2.47,1.85 -3.25,4.54z"/>
   <path class="fil11" d="M648.24 272.89c-0.78,-2.84 -0.6,-2.25 -2.38,-4.05 -1.75,-1.76 -1.3,-1.51 -3.57,-2.61 -6.78,3.4 -4.35,13.75 5.95,6.66z"/>
   <path class="fil12" d="M643.91 255.12c3.05,-1.36 3.48,-2.79 2.41,-6.06l-3.82 -0.03c-1.36,3.3 -0.94,4.05 1.41,6.09z"/>
  </g>
 </g>
</svg>
